<svg width="700" height="500" viewBox="0 0 700 500" fill="none" xmlns="http://www.w3.org/2000/svg">
<path d="M0 0H700V500H0V0Z" fill="white"/>
<path fill-rule="evenodd" clip-rule="evenodd" d="M330.464 500H0V359H35.0097C46.4898 359 57.4998 363.561 65.6179 371.68L80.8785 386.942C88.9966 395.062 100.007 399.623 111.487 399.623H212.974C224.454 399.623 235.465 404.184 243.583 412.303L328.141 496.872C329.072 497.804 329.852 498.859 330.464 500Z" fill="#E84752"/>
<path fill-rule="evenodd" clip-rule="evenodd" d="M473.288 116.238L415.158 58.1018V58.1013C413.523 56.4659 412.225 54.5243 411.34 52.3874C410.455 50.2505 410 47.9602 410 45.6473C410 35.9205 417.884 28.0356 427.609 28.0356C429.921 28.0356 432.211 27.5801 434.347 26.6949C436.484 25.8097 438.425 24.5123 440.06 22.8767C446.294 16.6408 446.876 6.89139 441.804 0H700V224H665.427C653.947 223.999 642.937 219.438 634.82 211.319L565.107 141.599C556.989 133.479 545.979 128.918 534.499 128.918H503.897C492.416 128.918 481.406 124.357 473.288 116.238Z" fill="#2B3D4A"/>
<path d="M297.36 216.34H290.038V245.43H297.36V216.34ZM423.731 216.34L411.967 245.43H404.253L392.261 216.34H400.309L408.14 236.934L415.908 216.342L423.731 216.34ZM448.54 230.858C448.54 225.403 444.662 221.853 439.984 221.853C435.082 221.853 431.428 225.49 431.428 230.858C431.428 236.222 435.082 239.642 439.984 239.642C444.683 239.642 448.54 236.23 448.54 230.858ZM452.31 245.405L448.88 234.829L448.377 242.157C446.237 244.618 443.141 246.237 438.635 246.237C429.91 246.237 423.826 239.642 423.826 230.858C423.826 222.071 429.856 215.28 438.577 215.28C440.389 215.231 442.191 215.571 443.86 216.276C445.53 216.981 447.029 218.035 448.258 219.368V216.348H455.556V232.414L460 245.452L452.31 245.405ZM283.934 226.563V245.435H276.519V227.739C276.519 223.66 274.691 221.62 271.386 221.62C267.558 221.62 265.679 224.336 265.679 229.157V245.419H258.272V227.81C258.272 224.695 256.954 221.633 253.247 221.633C249.539 221.633 247.603 224.632 247.429 229.282V245.435H240V215.965H247.415V224.073L249.186 217.274C250.041 216.475 251.046 215.853 252.142 215.443C253.239 215.034 254.405 214.846 255.575 214.889C260.817 214.889 264.581 218.23 265.497 223.73L267.064 217.274C267.905 216.47 268.899 215.845 269.988 215.435C271.076 215.025 272.236 214.839 273.398 214.889C279.96 214.889 283.894 219.026 283.894 226.571M288.94 208.674C288.94 207.751 289.217 206.846 289.733 206.078C290.251 205.307 290.987 204.707 291.846 204.353C292.705 204 293.649 203.909 294.56 204.092C295.241 204.223 295.884 204.503 296.442 204.913C297.001 205.323 297.461 205.853 297.789 206.463C298.118 207.074 298.306 207.749 298.34 208.441C298.374 209.134 298.254 209.825 297.988 210.464C297.631 211.319 297.029 212.049 296.258 212.561C295.352 213.163 294.266 213.433 293.184 213.327C292.102 213.221 291.09 212.745 290.317 211.98C289.881 211.547 289.535 211.032 289.298 210.465C289.062 209.898 288.94 209.289 288.94 208.674ZM331.755 228.372V245.435H324.433V229.432C324.433 224.23 322.694 221.995 318.642 221.995C314.361 221.995 311.884 224.961 311.884 230.048V245.435H304.564V216.348H311.884V224.79L313.514 218.195C315.143 216.456 317.433 215.28 320.999 215.28C327.985 215.28 331.755 219.868 331.755 228.372ZM344.546 227.984H357.722C357.722 224.01 355.373 221.324 351.358 221.324C347.925 221.324 345.285 223.342 344.546 227.984ZM365.325 233.123H344.492C345.165 238.216 348.099 240.234 352.151 240.234C355.976 240.234 358.42 238.724 359.92 235.366L365.099 240.038C362.231 244.237 357.44 246.269 351.923 246.269C342.517 246.269 336.723 239.9 336.723 231.004C336.723 221.886 342.916 215.28 351.616 215.28C360.121 215.28 365.523 221.432 365.523 230.328C365.545 231.263 365.49 232.199 365.36 233.126M389.159 216.06V223.157C387.935 222.777 386.66 222.588 385.378 222.598C381.217 222.598 378.457 225.675 378.457 231.382V245.4H371.137V216.348H378.457V225.909L380.087 218.303C380.87 217.456 381.819 216.78 382.875 216.317C383.932 215.854 385.072 215.615 386.226 215.614C387.224 215.561 388.223 215.714 389.159 216.065" fill="#2B3D4A"/>
<path d="M259.157 270.935H250.376V295.5H245.196V270.938H240V266.404H245.18V262.938C245.18 257.4 248.787 253.432 254.415 253.432C255.837 253.429 257.255 253.596 258.638 253.929V258.405C257.564 258.176 256.469 258.064 255.371 258.071C252.234 258.071 250.362 259.527 250.362 263.101V266.404H259.141L259.157 270.935ZM268.278 280.887C268.278 287.381 272.668 291.572 278.578 291.572C284.488 291.572 288.94 287.381 288.94 280.887C288.94 274.393 284.605 270.21 278.578 270.21C272.551 270.21 268.278 274.455 268.278 280.887ZM294.286 280.887C294.286 290.005 287.419 296.331 278.611 296.331C269.802 296.331 263.02 290.005 263.02 280.887C263.02 271.766 269.832 265.451 278.611 265.451C287.389 265.451 294.286 271.774 294.286 280.887ZM304.14 280.887C304.14 287.381 308.529 291.572 314.44 291.572C320.35 291.572 324.802 287.381 324.802 280.887C324.802 274.393 320.467 270.21 314.44 270.21C308.41 270.21 304.14 274.455 304.14 280.887ZM330.147 280.887C330.147 290.005 323.281 296.331 314.47 296.331C305.658 296.331 298.879 290.005 298.879 280.887C298.879 271.766 305.691 265.451 314.47 265.451C323.248 265.451 330.147 271.774 330.147 280.887ZM360.71 280.952C360.71 274.909 356.603 270.15 350.356 270.15C343.88 270.15 339.994 274.909 339.994 280.952C339.994 286.996 343.913 291.638 350.356 291.638C356.628 291.638 360.71 286.966 360.71 280.952ZM364.629 295.5L360.971 284.48L360.406 291.529C358.157 294.27 354.604 296.342 349.541 296.342C340.588 296.342 334.735 289.573 334.735 280.96C334.735 272.347 340.588 265.462 349.538 265.462C351.66 265.388 353.768 265.822 355.688 266.727C357.608 267.632 359.284 268.983 360.577 270.666V254.38H365.751V282.908L370.07 295.5H364.629ZM398.275 273.955L393.32 275.802C393.092 272.054 390.441 269.702 385.998 269.702C382.002 269.702 379.634 271.603 379.634 274.064C379.634 280.949 398.666 276.028 398.666 287.436C398.666 293.137 393.82 296.331 386.508 296.331C378.957 296.331 374.231 292.637 373.332 287.381L378.395 285.255C378.623 289.671 381.774 292.078 386.508 292.078C390.224 292.078 393.092 290.793 393.092 287.77C393.092 280.949 374.28 286.034 374.28 274.398C374.28 269.196 379.625 265.451 385.989 265.451C392.802 265.451 397.528 268.862 398.267 273.953" fill="#E84752"/>
</svg>
